<svg width="60" height="60" viewBox="0 0 60 60" fill="none" xmlns="http://www.w3.org/2000/svg">
<rect width="60" height="60" rx="12" fill="#7B61FF"/>
<g clip-path="url(#clip0_1902_632)">
<path d="M36.031 34.617L40.314 38.899L38.899 40.314L34.617 36.031C33.0237 37.3082 31.042 38.0029 29 38C24.032 38 20 33.968 20 29C20 24.032 24.032 20 29 20C33.968 20 38 24.032 38 29C38.0029 31.042 37.3082 33.0237 36.031 34.617ZM34.025 33.875C35.2941 32.5699 36.0029 30.8204 36 29C36 25.132 32.867 22 29 22C25.132 22 22 25.132 22 29C22 32.867 25.132 36 29 36C30.8204 36.0029 32.5699 35.2941 33.875 34.025L34.025 33.875Z" fill="white"/>
</g>
<defs>
<clipPath id="clip0_1902_632">
<rect width="24" height="24" fill="white" transform="translate(18 18)"/>
</clipPath>
</defs>
</svg>
